<svg xmlns="http://www.w3.org/2000/svg" version="1.1" xmlns:xlink="http://www.w3.org/1999/xlink" xmlns:svgjs="http://svgjs.dev/svgjs" width="1440" height="560" preserveAspectRatio="none" viewBox="0 0 1440 560">
    <g mask="url(&quot;#SvgjsMask1710&quot;)" fill="none">
        <rect width="1440" height="560" x="0" y="0" fill="url(&quot;#SvgjsLinearGradient1711&quot;)"></rect>
        <path d="M1440 0L1294.81 0L1440 217.15z" fill="rgba(255, 255, 255, .1)"></path>
        <path d="M1294.81 0L1440 217.15L1440 234.77L1222.6699999999998 0z" fill="rgba(255, 255, 255, .075)"></path>
        <path d="M1222.67 0L1440 234.77L1440 393.84000000000003L822.96 0z" fill="rgba(255, 255, 255, .05)"></path>
        <path d="M822.96 0L1440 393.84000000000003L1440 446.83000000000004L499.50000000000006 0z" fill="rgba(255, 255, 255, .025)"></path>
        <path d="M0 560L86.99 560L0 531.42z" fill="rgba(0, 0, 0, .1)"></path>
        <path d="M0 531.42L86.99 560L122.91999999999999 560L0 383.26z" fill="rgba(0, 0, 0, .075)"></path>
        <path d="M0 383.26L122.91999999999999 560L813.5999999999999 560L0 313.05z" fill="rgba(0, 0, 0, .05)"></path>
        <path d="M0 313.05L813.5999999999999 560L1244.31 560L0 173.23000000000002z" fill="rgba(0, 0, 0, .025)"></path>
    </g>
    <defs>
        <mask id="SvgjsMask1710">
            <rect width="1440" height="560" fill="#ffffff"></rect>
        </mask>
        <linearGradient x1="15.28%" y1="-39.29%" x2="84.72%" y2="139.29%" gradientUnits="userSpaceOnUse" id="SvgjsLinearGradient1711">
            <stop stop-color="rgba(14, 17, 51, 1)" offset="0"></stop>
            <stop stop-color="rgba(29, 91, 171, 0.932)" offset="1"></stop>
        </linearGradient>
    </defs>
</svg>
